<?xml version="1.0" encoding="iso-8859-1"?>
<!-- Generator: Adobe Illustrator 19.0.0, SVG Export Plug-In . SVG Version: 6.00 Build 0)  -->
<svg xmlns="http://www.w3.org/2000/svg" xmlns:xlink="http://www.w3.org/1999/xlink" version="1.1" id="Capa_1" x="0px" y="0px" viewBox="0 0 512 512" style="enable-background:new 0 0 512 512;" xml:space="preserve" width="512px" height="512px">
<g>
	<g>
		<rect x="90" y="18.5" width="60" height="145"/>
	</g>
</g>
<g>
	<g>
		<path d="M263.1,328.5c4.479,14.212,6.899,29.328,6.899,45v15h49.24c2.12-10.5,5.724-20.583,10.704-30    c5.205-9.84,11.91-18.954,20.005-27.05c1.009-1.007,2.037-1.986,3.075-2.95H263.1z"/>
	</g>
</g>
<g>
	<g>
		<path d="M422,193.5H120c-13.527,0-26.945,1.551-40.001,4.541c-27.2,6.229-52.826,18.738-74.561,36.713l19.119,23.118    c16.32-13.496,35.271-23.292,55.441-28.896c12.955-3.6,26.412-5.475,40.001-5.475c55.407,0,103.89,30.199,129.864,75    c0.001-0.001,174.576-0.001,179.636-0.001c7.646,0,15.174,0.761,22.501,2.241c10.5,2.12,20.583,5.724,30,10.705V253.5    C482,220.416,455.084,193.5,422,193.5z"/>
	</g>
</g>
<g>
	<g>
		<path d="M120,358.5c-8.271,0-15,6.729-15,15s6.729,15,15,15s15-6.729,15-15S128.271,358.5,120,358.5z"/>
	</g>
</g>
<g>
	<g>
		<path d="M120,253.5c-6.617,0-13.109,0.547-19.438,1.583C43.606,264.399,0,313.948,0,373.5c0,66.168,53.832,120,120,120    c66.142,0,119.957-53.79,119.999-119.923c0-0.026,0.001-0.051,0.001-0.077C240,307.331,186.168,253.5,120,253.5z M120,418.5    c-24.813,0-45-20.187-45-45s20.187-45,45-45s45,20.187,45,45S144.813,418.5,120,418.5z"/>
	</g>
</g>
<g>
	<g>
		<circle cx="429.5" cy="411" r="82.5"/>
	</g>
</g>
<g>
</g>
<g>
</g>
<g>
</g>
<g>
</g>
<g>
</g>
<g>
</g>
<g>
</g>
<g>
</g>
<g>
</g>
<g>
</g>
<g>
</g>
<g>
</g>
<g>
</g>
<g>
</g>
<g>
</g>
</svg>
