<?xml version="1.0" encoding="iso-8859-1"?>
<!-- Generator: Adobe Illustrator 16.0.0, SVG Export Plug-In . SVG Version: 6.00 Build 0)  -->
<!DOCTYPE svg PUBLIC "-//W3C//DTD SVG 1.1//EN" "http://www.w3.org/Graphics/SVG/1.1/DTD/svg11.dtd">
<svg xmlns="http://www.w3.org/2000/svg" xmlns:xlink="http://www.w3.org/1999/xlink" version="1.1" id="Capa_1" x="0px" y="0px" width="512px" height="512px" viewBox="0 0 527.513 527.513" style="enable-background:new 0 0 527.513 527.513;" xml:space="preserve">
<g>
	<path d="M481.718,241.948c0.332,2.454,0.563,4.955,0.563,7.51c0,4.167-1.413,7.62-3.879,10.487   c-17.836-28.648-49.605-47.768-85.763-47.768c-45.453,0-83.979,30.213-96.577,71.608H186.04c-1.384-4.398-3.272-8.558-5.587-12.438   l110.143,0.115c0,0,4.235-23.57,36.181-49.861h-48.214l-37.245-108.521c-1.02-4-4.629-6.807-8.757-6.807h-96.486   c-4.998,0-9.042,4.052-9.042,9.043v112.307c0,1.286,0.268,2.495,0.754,3.603v10.72H106.3c-16.715,0-31.804,6.871-42.657,17.91   C27.253,268.126,0,300.662,0,339.508c0,45.067,36.662,81.729,81.724,81.729s81.724-36.662,81.724-81.729   c0-1.63-0.145-3.228-0.241-4.848h7.968c0.688,9.592,1.036,32.345-9.469,46.353h143.554c0,0-21.711-26.325-24.657-46.353h13.434   c9.898,45.357,50.332,79.426,98.611,79.426c42.316,0,78.6-26.178,93.593-63.18c23.767-6.463,41.271-28.138,41.271-53.954   C527.508,269.511,507.757,246.739,481.718,241.948z M81.724,394.107c-30.107,0-54.594-24.493-54.594-54.6   c0-30.102,24.487-54.594,54.594-54.594c30.102,0,54.591,24.492,54.591,54.594C136.315,369.614,111.826,394.107,81.724,394.107z    M145.12,218.582v-94.214h80.409l33.825,94.214H145.12z M392.64,239.321c25.018,0,47.145,12.534,60.498,31.639   c-17.786,3.087-40.522,2.539-58.813,1.98c-1.998-0.284-4.028-0.453-6.106-0.453h-44.325c-5.078,0-9.893,0.903-14.304,2.456   C342.553,253.625,365.928,239.321,392.64,239.321z M392.64,386.939c-33.206,0-61.344-22.059-70.592-52.284h13.778   c1.292,0,2.559-0.083,3.81-0.209c1.4,0.126,2.814,0.209,4.257,0.209h44.325c1.526,0,3.054-0.11,4.548-0.256   c10.221,11.341,24.988,18.509,41.472,18.509h20.487C441.573,373.341,418.684,386.939,392.64,386.939z"/>
</g>
<g>
</g>
<g>
</g>
<g>
</g>
<g>
</g>
<g>
</g>
<g>
</g>
<g>
</g>
<g>
</g>
<g>
</g>
<g>
</g>
<g>
</g>
<g>
</g>
<g>
</g>
<g>
</g>
<g>
</g>
</svg>
